<?xml version="1.0" encoding="utf-8"?>
<!-- Generator: Adobe Illustrator 23.1.1, SVG Export Plug-In . SVG Version: 6.00 Build 0)  -->
<svg version="1.1" id="Layer_1" xmlns="http://www.w3.org/2000/svg" xmlns:xlink="http://www.w3.org/1999/xlink" x="0px" y="0px"
	 viewBox="0 0 496 94" style="enable-background:new 0 0 496 94;" xml:space="preserve" aria-labelledby="title_svg" role="img">
<title id="title_svg">Ultrapack E-Raffle Duo Winners</title>
<style type="text/css">
	.st0{opacity:0.1;}
	.st1{fill:#000000;}
	.st2{fill:#808080;}
	.st3{fill:currentcolor;}
	.st4{fill:#FFFFFF;}
</style>
<g>
	<g class="st0">
		<path class="st1" d="M29.7,10h-9.3c-5.5,0-10,4.5-10,10v50.8c0,5.5,4.5,10,10,10h33c5.5,0,10-4.5,10-10v-7.6c0-5.5-4.5-10-10-10
			H39.7V20C39.7,14.5,35.2,10,29.7,10L29.7,10z"/>
		<path class="st2" d="M20.4,70.8V20h9.3v43.1h23.7v7.6h-33V70.8z"/>
		<path class="st1" d="M99.8,25.6h-9c-2.9,0-5.4,1.2-7.3,3.1c-1.8-1.9-4.4-3.1-7.3-3.1h-9c-5.5,0-10,4.5-10,10v21.2
			c0,15.1,8.8,24.5,23,24.5c2.6,0,5.1-0.4,7.4-1.2c1.1,0.4,2.2,0.6,3.4,0.6h8.8c5.5,0,10-4.5,10-10V35.6
			C109.8,30,105.3,25.6,99.8,25.6L99.8,25.6z"/>
		<path class="st2" d="M99.8,35.6v35.2H91v-5.4c-1.1,1.9-2.6,3.4-4.5,4.4s-4,1.5-6.3,1.5c-8.6,0-13-4.8-13-14.5V35.6h9v21.3
			c0,2.5,0.5,4.3,1.5,5.5s2.6,1.8,4.8,1.8c2.5,0,4.5-0.8,6-2.5s2.3-3.9,2.3-6.6V35.6H99.8z"/>
		<path class="st1" d="M134.2,24.7c-5.3,0-10.2,1.2-14.5,3.5c-4.5,2.5-8,6-10.4,10.5c-2.3,4.3-3.5,9.1-3.5,14.4s1.1,10.1,3.3,14.2
			c2.4,4.5,5.8,8,10.3,10.4c4.2,2.3,9,3.5,14.4,3.5c3.6,0,7.2-0.6,10.6-1.7c3.7-1.2,6.9-3,9.5-5.4c3.1-2.8,4.1-7.3,2.5-11.2
			l-2.6-6.3c-0.6-1.5-1.6-2.8-2.7-3.8c1.2-1,2.1-2.3,2.8-3.8l2.6-6.3c1.6-3.8,0.6-8.3-2.4-11.1c-2.5-2.3-5.7-4.1-9.4-5.4
			C141.3,25.3,137.8,24.7,134.2,24.7L134.2,24.7z M135.2,54.3c0-0.3-0.1-0.7-0.1-1.2c0-0.6,0-1,0.1-1.3c0.4,0,0.8,0.1,1.2,0.3
			c0.6,0.2,1.1,0.5,1.7,1c-0.6,0.4-1.1,0.8-1.7,1C136,54.2,135.6,54.2,135.2,54.3L135.2,54.3z"/>
		<path class="st2" d="M124.3,69.1c-2.7-1.5-4.8-3.6-6.2-6.3c-1.4-2.7-2.2-5.9-2.2-9.6c0-3.6,0.8-6.9,2.3-9.7s3.7-5,6.4-6.5
			c2.8-1.5,6-2.3,9.6-2.3c2.5,0,4.9,0.4,7.3,1.2c2.4,0.8,4.3,1.9,5.7,3.2l-2.6,6.3c-1.5-1.2-3.1-2.1-4.7-2.7
			c-1.7-0.6-3.3-0.9-4.9-0.9c-3.1,0-5.5,1-7.3,2.9c-1.7,1.9-2.6,4.7-2.6,8.4c0,3.6,0.9,6.4,2.6,8.3c1.7,1.9,4.2,2.9,7.3,2.9
			c1.6,0,3.3-0.3,4.9-0.9c1.7-0.6,3.2-1.5,4.7-2.7l2.6,6.3c-1.5,1.4-3.5,2.5-5.9,3.3s-4.9,1.2-7.5,1.2
			C130.2,71.3,127,70.6,124.3,69.1z"/>
		<path class="st1" d="M170.6,10h-9c-5.5,0-10,4.5-10,10v50.8c0,5.5,4.5,10,10,10h9c3,0,5.7-1.3,7.6-3.4l0.3,0.3
			c1.9,2,4.5,3.1,7.3,3.1H197c4,0,7.6-2.4,9.2-6c1.6-3.6,0.9-7.9-1.8-10.8l-10.6-11.4l9.4-10c2.7-2.9,3.5-7.2,1.9-10.8
			c-1.6-3.7-5.2-6-9.2-6H185c-1.5,0-2.9,0.3-4.2,0.9V20C180.6,14.5,176.1,10,170.6,10L170.6,10z"/>
		<path class="st2" d="M180.6,30v14.5c0,1.8-0.7,3.5-2,4.7c-1.3,1.3-2.9,1.9-4.7,1.9c-1.7,0-3.2-0.7-4.3-1.9c-1.3-1.2-2-2.9-2-4.7V30
			h-9v25.7v15.1v-40.8h9V30H180.6z"/>
		<path class="st1" d="M213.3,30c-5.5,0-10,4.5-10,10v21.2c0,15.1,8.8,24.5,23,24.5c2.6,0,5.1-0.4,7.4-1.2c1.1,0.4,2.2,0.6,3.4,0.6
			h8.8c5.5,0,10-4.5,10-10V35.6c0-5.5-4.5-10-10-10H213.3L213.3,30z"/>
		<path class="st2" d="M224.3,35.6c0-1.6-0.6-3.1-1.7-4.2c-1.1-1.1-2.6-1.7-4.2-1.7h-9c-1.7,0-3.2,0.6-4.3,1.7
			c-1.1,1.1-1.7,2.6-1.7,4.2v14.5c0,1.7,0.6,3.2,1.7,4.3c1.1,1.1,2.6,1.7,4.3,1.7c1.6,0,3.1-0.6,4.2-1.7c1.1-1.1,1.7-2.6,1.7-4.3
			V35.6H224.3z"/>
	</g>
</g>
</svg>